<svg id="Layer_1" data-name="Layer 1" xmlns="http://www.w3.org/2000/svg" viewBox="0 0 368.07 79.49"><title>binayak</title><path d="M16.26,64.86V46.95h3.1V64.86Zm6.2,0V46.95h9.3V64.86Zm12.39,0V46.95H38V64.86Zm15.49,0V46.95h3.1V64.86Zm6.2,0V46.95h9.3V64.86Z" transform="translate(-16.26 -15.58)"/><path d="M68.94,64.86V46.95H72V64.86Zm6.2,0V46.95h9.3V64.86Zm12.39,0V46.95h3.1V64.86Zm15.49,0V46.95h9.3V64.86Zm12.39,0V46.95h3.1V64.86Z" transform="translate(-16.26 -15.58)"/><path d="M121.62,64.86V46.95h3.1V64.86Zm6.2,0V46.95h3.1V64.86Zm6.2,0V46.95h9.3V64.86Zm12.4,0V46.95h3.1V64.86Zm15.49,0V46.95h9.3V64.86Z" transform="translate(-16.26 -15.58)"/><path d="M174.29,64.86V46.95h9.3V64.86Zm12.39,0V46.95h3.1V64.86Zm6.2,0V46.95H196V64.86Zm15.49,0V46.95h3.1V64.86Zm6.2,0V46.95h9.3V64.86Z" transform="translate(-16.26 -15.58)"/><path d="M227,64.86V46.95h9.3V64.86Zm21.69,0V46.95h3.1V64.86Zm6.2,0V46.95h9.3V64.86Zm12.39,0V46.95h3.1V64.86Zm6.2,0V46.95h3.1V64.86Z" transform="translate(-16.26 -15.58)"/><path d="M279.65,64.86V46.95h9.3V64.86Zm12.39,0V46.95h3.1V64.86Zm6.2,0V46.95h3.1V64.86Zm15.49,0V46.95h3.1V64.86Zm6.2,0V46.95h9.3V64.86Z" transform="translate(-16.26 -15.58)"/><path d="M332.32,64.86V46.95h9.3V64.86Zm12.39,0V46.95h3.1V64.86Zm6.2,0V46.95H354V64.86Zm6.2,0V46.95h3.1V64.86Zm15.49,0V46.95h9.3V64.86Z" transform="translate(-16.26 -15.58)"/><path d="M33.92,30.66A6.31,6.31,0,0,1,33.15,33a9.66,9.66,0,0,1-1.55,2.05,12.61,12.61,0,0,1-2.09,1.7A15.43,15.43,0,0,1,27.11,38a14.93,14.93,0,0,1-2.48.81,10.37,10.37,0,0,1-2.32.29q-.53,0-1.08-.07t-1.07-.16A7,7,0,0,1,19,38.62l.62-18.31q-.57,0-1.24,0t-1.46-.14l3.5-2a8.51,8.51,0,0,0,.94.11l.85,0a10.44,10.44,0,0,0,1.38-.09q.67-.09,1.31-.21l1.27-.21a9.09,9.09,0,0,1,1.27-.09,6.09,6.09,0,0,1,1.93.29,4.29,4.29,0,0,1,1.52.86,3.72,3.72,0,0,1,1,1.39,4.64,4.64,0,0,1,.31,1.89,3.7,3.7,0,0,1-.48,1.42,6.94,6.94,0,0,1-.44.67,5.66,5.66,0,0,1-.64.72,8.53,8.53,0,0,1-.89.74,10.27,10.27,0,0,1-1.16.72l.48,0h.44a5.82,5.82,0,0,1,1.55.18,4.28,4.28,0,0,1,1.15.49,3.35,3.35,0,0,1,.8.69,3.77,3.77,0,0,1,.51.79A5,5,0,0,1,33.92,30.66ZM25.8,37a5.76,5.76,0,0,0,2-.31,3.74,3.74,0,0,0,2.34-2.36,5.86,5.86,0,0,0,.3-1.95,4.58,4.58,0,0,0-.31-1.72,4,4,0,0,0-.88-1.35,4.13,4.13,0,0,0-1.33-.89,4.27,4.27,0,0,0-1.67-.32,3.59,3.59,0,0,0-.69.07,2.58,2.58,0,0,0-.69.25,9.88,9.88,0,0,0,1.9-1.26,6.5,6.5,0,0,0,1.16-1.29,4.23,4.23,0,0,0,.57-1.24,4.46,4.46,0,0,0,.16-1.12,3.79,3.79,0,0,0-1-2.63,3.42,3.42,0,0,0-1.13-.78,3.55,3.55,0,0,0-1.41-.28,9.66,9.66,0,0,0-1,0l-.93.12-.62,16.49a12,12,0,0,0,1.79.42A10.47,10.47,0,0,0,25.8,37Z" transform="translate(-16.26 -15.58)"/><path d="M63.4,36.21q-.81.55-1.59,1t-1.5.8a12.11,12.11,0,0,1-1.35.55,5.53,5.53,0,0,1-1.17.27,8.1,8.1,0,0,1-.94,0,1.26,1.26,0,0,1-.68-.18,1.07,1.07,0,0,1-.41-.56,3.28,3.28,0,0,1-.14-1.07q0-.34,0-1.18t0-2q0-1.17,0-2.56t0-2.81q0-1.42,0-2.78t0-2.46q0-1.11,0-1.86t0-1a.67.67,0,0,0-.4-.68,2.4,2.4,0,0,0-1-.2,6,6,0,0,0-1,.1q-.54.1-1,.22.7-.46,1.37-.85A11.88,11.88,0,0,1,55,18.35a8.33,8.33,0,0,1,1.4-.44,6.83,6.83,0,0,1,1.48-.16,4.53,4.53,0,0,1,.57,0,2.08,2.08,0,0,1,.46.11.83.83,0,0,1,.31.2.42.42,0,0,1,.12.3q0,.53,0,2.58,0,.88,0,2.17t0,3.14q0,1.84,0,4.27t0,5.56a11.1,11.1,0,0,0,1.35.2q.61,0,1.09,0t.7,0l.53-.05Z" transform="translate(-16.26 -15.58)"/><path d="M111.69,17.34a.71.71,0,0,0-.29.26,1.52,1.52,0,0,0-.16.33,2.7,2.7,0,0,0-.08.41q0,.15,0,.71t-.05,1.42q0,.85-.07,1.91t-.08,2.19q0,1.14-.08,2.27T110.78,29q0,1-.05,1.78t0,1.22q0,.88-.08,1.43a6.25,6.25,0,0,1-.15.92,3,3,0,0,1-.23.63l-.3.55q-.12.26-.37.72L109,37.3,108,39a5.36,5.36,0,0,0-.65-1.26q-.44-.66-.91-1.23t-1.16-1.3L103,32.94l-1.54-1.51-2.06-2-2.65-2.6-3.29-3.24q0,1.67,0,3t0,2.4q0,1.06,0,1.85t0,1.36q0,1.34,0,1.91a2.77,2.77,0,0,0,.08.8,1.75,1.75,0,0,0,.3.63,1.39,1.39,0,0,0,.53.42,1.89,1.89,0,0,0,.79.15,4.28,4.28,0,0,0,1.07-.16,8.25,8.25,0,0,0,1.37-.51q-.67.66-1.26,1.13a13.67,13.67,0,0,1-1.12.82,9.52,9.52,0,0,1-1,.56,7.19,7.19,0,0,1-.8.34,3.58,3.58,0,0,1-1.48.25.92.92,0,0,1-.68-.41,1.93,1.93,0,0,1-.16-.87q0-4.31.15-8.54t.15-8.45V19.19a4.91,4.91,0,0,0,0-.62,2.72,2.72,0,0,1,.45-.81,8.55,8.55,0,0,1,.83-.94A13.4,13.4,0,0,1,94,15.58a2.68,2.68,0,0,0-.15.56,3.51,3.51,0,0,0,0,.52,3,3,0,0,0,.08.7,2.48,2.48,0,0,0,.18.53,3.09,3.09,0,0,0,.27.45q.46.57,1.2,1.34t1.72,1.73l2.15,2.13q1.18,1.16,2.52,2.54,1,.9,2,2,.92.9,2.08,2.11t2.39,2.59q0-2.52,0-4.35t0-3.19q0-1.24,0-2.06t0-1.31q0-.56,0-.89a2,2,0,0,0-.14-.78,1.32,1.32,0,0,0-.35-.49,1.28,1.28,0,0,0-.49-.25,2.07,2.07,0,0,0-.55-.08,2.6,2.6,0,0,0-.6.07,1.25,1.25,0,0,0-.44.18q.57-.49,1.13-.92a8.57,8.57,0,0,1,1.14-.75,6.16,6.16,0,0,1,1.22-.5,4.86,4.86,0,0,1,1.36-.18A4.69,4.69,0,0,1,111.69,17.34Z" transform="translate(-16.26 -15.58)"/><path d="M148.18,28.84l-.59.53-.67.54q.34.83.68,1.59t.63,1.39q.29.64.55,1.11a7.45,7.45,0,0,0,.46.77,3.88,3.88,0,0,0,.64.7,3.93,3.93,0,0,0,.73.47,2,2,0,0,0,.92.21,2.2,2.2,0,0,0,1.09-.34q-.49.52-1,1a9.38,9.38,0,0,1-1.16.9,6.55,6.55,0,0,1-1.26.64,3.73,3.73,0,0,1-1.33.25,1.63,1.63,0,0,1-1-.31,3.14,3.14,0,0,1-.86-1.09,7.91,7.91,0,0,1-.4-.79q-.25-.54-.57-1.29l-.7-1.65-.79-1.91a13.22,13.22,0,0,1-1.87.41,14.62,14.62,0,0,1-2.17.15h-4l-1.12,2.63a2.38,2.38,0,0,0-.13.53,1,1,0,0,0,0,.49.72.72,0,0,0,.32.36,1.42,1.42,0,0,0,.72.14,3.92,3.92,0,0,0,.62-.05q.34-.05.78-.16L135.4,37.3a7.65,7.65,0,0,1-1.07.82,3.93,3.93,0,0,1-1,.46,4.48,4.48,0,0,1-1.19.14.73.73,0,0,1-.57-.19.77.77,0,0,1-.17-.53,3.27,3.27,0,0,1,.23-1.07q.23-.63.57-1.39T133.29,33l.86-2,1.2-2.71,1.59-3.6q.9-2,2-4.61l.64-.53a3.49,3.49,0,0,1,.07-.74,2.07,2.07,0,0,1,.2-.55,2.11,2.11,0,0,1,.31-.43,4.91,4.91,0,0,1,.38-.37l.59-.48,1.68-1.39a2.28,2.28,0,0,0-.23.7,5,5,0,0,0-.06.77,6.74,6.74,0,0,0,0,.76q0,.36.1.64a3.57,3.57,0,0,0,.15.6q.15.49.52,1.56t.88,2.45q.51,1.39,1.11,3t1.2,3.08l.7-.11.51-.08ZM140,22.15l-1.83,4q-.86,1.85-1.64,3.67,1.83,0,3.36-.12t2.78-.19q-.44-1.07-.84-2.13t-.75-2q-.35-1-.63-1.78T140,22.15Z" transform="translate(-16.26 -15.58)"/><path d="M186.08,17.75a2.76,2.76,0,0,1,0,1.5,6.88,6.88,0,0,1-.74,1.72A16.39,16.39,0,0,1,184,22.85q-.77,1-1.67,1.95t-1.88,1.95q-1,1-1.92,1.87c0,.06,0,.15,0,.26s0,.25,0,.43,0,.4,0,.66,0,.58,0,.94q0,.82,0,2t0,2.84a3.7,3.7,0,0,0,1.09.16,4,4,0,0,0,.89-.1,7.73,7.73,0,0,0,.75-.21,4.15,4.15,0,0,0,.53-.21l.23-.13a6.8,6.8,0,0,1-1.24,1.24,10.6,10.6,0,0,1-1.52,1,9,9,0,0,1-1.54.66,4.43,4.43,0,0,1-1.31.24,1.21,1.21,0,0,1-1-.31,1.41,1.41,0,0,1-.25-.89q0-.42,0-1t.06-1.33q0-.71.08-1.46t.08-1.42q0-.67.06-1.21t0-.84a1.89,1.89,0,0,0-.21-.58q-.21-.44-.57-1.09l-.81-1.44q-.46-.79-1-1.61l-1-1.62q-.51-.8-1-1.46T170.24,21a4.57,4.57,0,0,0-.51-.64,1.7,1.7,0,0,0-.36-.22,3.19,3.19,0,0,0-.44-.16,2.24,2.24,0,0,0-.62-.08,3.79,3.79,0,0,0-1,.15,4.83,4.83,0,0,0-1.24.57q.53-.57,1.11-1.11a9.19,9.19,0,0,1,1.21-1,6.22,6.22,0,0,1,1.33-.66,4.3,4.3,0,0,1,1.46-.25,2.92,2.92,0,0,1,.85.12,1.27,1.27,0,0,1,.62.39,7.29,7.29,0,0,1,.57.79q.4.6.91,1.45l1.11,1.85q.59,1,1.16,2t1.07,2q.5,1,.83,1.66.81-.75,1.62-1.63a15.82,15.82,0,0,0,1.46-1.84,10.48,10.48,0,0,0,1.05-2,5.3,5.3,0,0,0,.4-2q0-.79-.51-.93a1.26,1.26,0,0,0-.37,0,2.18,2.18,0,0,0-.4.11,2.23,2.23,0,0,0-.49.26l.9-.89a10.53,10.53,0,0,1,1-.88,6.11,6.11,0,0,1,1.07-.68,2.55,2.55,0,0,1,1.14-.27,1.07,1.07,0,0,1,.58.14A.79.79,0,0,1,186.08,17.75Z" transform="translate(-16.26 -15.58)"/><path d="M221.72,28.84l-.59.53-.67.54q.34.83.68,1.59t.63,1.39c.2.42.38.8.55,1.11a7.45,7.45,0,0,0,.46.77,3.6,3.6,0,0,0,1.37,1.17,2,2,0,0,0,.92.21,2.2,2.2,0,0,0,1.09-.34q-.49.52-1,1a9.38,9.38,0,0,1-1.16.9,6.54,6.54,0,0,1-1.26.64,3.73,3.73,0,0,1-1.33.25,1.63,1.63,0,0,1-1-.31,3.14,3.14,0,0,1-.86-1.09,7.91,7.91,0,0,1-.4-.79q-.25-.54-.57-1.29l-.7-1.65-.79-1.91a13.22,13.22,0,0,1-1.87.41,14.62,14.62,0,0,1-2.17.15h-4l-1.12,2.63a2.38,2.38,0,0,0-.13.53,1,1,0,0,0,0,.49.72.72,0,0,0,.32.36,1.42,1.42,0,0,0,.72.14,3.92,3.92,0,0,0,.62-.05q.34-.05.78-.16l-1.33,1.23a7.65,7.65,0,0,1-1.07.82,3.93,3.93,0,0,1-1,.46,4.48,4.48,0,0,1-1.19.14.73.73,0,0,1-.57-.19.77.77,0,0,1-.17-.53,3.27,3.27,0,0,1,.23-1.07q.23-.63.57-1.39T206.83,33l.86-2,1.2-2.71,1.59-3.6q.9-2,2-4.61l.64-.53a3.49,3.49,0,0,1,.07-.74,2.05,2.05,0,0,1,.2-.55,2.11,2.11,0,0,1,.31-.43,4.91,4.91,0,0,1,.38-.37l.59-.48,1.68-1.39a2.28,2.28,0,0,0-.23.7,5,5,0,0,0-.06.77,6.74,6.74,0,0,0,0,.76c0,.24.06.45.1.64a3.53,3.53,0,0,0,.15.6q.15.49.52,1.56t.88,2.45q.51,1.39,1.11,3t1.2,3.08l.7-.11.51-.08Zm-8.15-6.69-1.83,4q-.86,1.85-1.64,3.67,1.83,0,3.36-.12t2.78-.19q-.44-1.07-.84-2.13t-.75-2q-.35-1-.63-1.78T213.57,22.15Z" transform="translate(-16.26 -15.58)"/><path d="M253.07,35.84q-.81.55-1.59,1t-1.5.81a12.25,12.25,0,0,1-1.35.57,5.31,5.31,0,0,1-1.17.27,7.54,7.54,0,0,1-.94,0,1.36,1.36,0,0,1-.68-.19,1,1,0,0,1-.4-.55,3.18,3.18,0,0,1-.14-1q0-.34,0-1.19t0-2q0-1.17,0-2.56t0-2.81q0-1.42,0-2.78t0-2.47q0-1.11,0-1.87c0-.51,0-.83,0-1a.63.63,0,0,0-.1-.41.86.86,0,0,0-.31-.27,1.51,1.51,0,0,0-.47-.14,3.88,3.88,0,0,0-.57,0,6.55,6.55,0,0,0-1,.09q-.55.09-1,.21.68-.44,1.36-.83a12.15,12.15,0,0,1,1.36-.68,8.6,8.6,0,0,1,1.39-.45,6.48,6.48,0,0,1,1.46-.16,4.7,4.7,0,0,1,.57,0,2.34,2.34,0,0,1,.49.11.84.84,0,0,1,.33.21.45.45,0,0,1,.12.32q0,.52,0,2.57,0,.88,0,2.17t0,3.14q0,1.84,0,4.27t0,5.57q.71.12,1.31.18t1.07.05q.42,0,.74,0l.53-.05Zm14.36.18a15.8,15.8,0,0,1-1.84,1.37,11,11,0,0,1-1.37.74,4.5,4.5,0,0,1-1.15.36,3.36,3.36,0,0,1-1.51,0,8.27,8.27,0,0,1-1.74-.65A14.68,14.68,0,0,1,258,36.67q-.94-.66-1.86-1.4t-1.77-1.54q-.85-.79-1.57-1.52t-1.27-1.33q-.55-.61-.87-1t-.43-.57a.78.78,0,0,1-.16-.44.84.84,0,0,1,.19-.47,5.48,5.48,0,0,1,.66-.7l.64-.62.88-.88,1-1.06q.54-.57,1.07-1.16t1-1.18q.48-.59.85-1.11a8.52,8.52,0,0,0,.58-1,1.69,1.69,0,0,0,.22-.73q0-.4-.85-.4h-1.16a2.18,2.18,0,0,0-.42,0l1.33-.77a13.06,13.06,0,0,1,1.22-.63,7.66,7.66,0,0,1,1.2-.42,5,5,0,0,1,1.27-.16l.61,0a5,5,0,0,1,.65.09,21.45,21.45,0,0,1-1.28,2q-.65.9-1.3,1.65t-1.29,1.38q-.64.63-1.25,1.2l-1.19,1.1q-.57.53-1.09,1.11a.7.7,0,0,0-.21.59,1.72,1.72,0,0,0,.5.86l1.61,1.76q.88,1,1.89,1.91t2.11,1.86a19.54,19.54,0,0,0,2.25,1.6,12.5,12.5,0,0,0,2.33,1.11,7,7,0,0,0,2.36.42A1.75,1.75,0,0,0,267.43,36Z" transform="translate(-16.26 -15.58)"/><path d="M177.26,95.07q-.93,0-2.25-.08t-3-.34l.64-18.42-.83,0h-1.29a3.43,3.43,0,0,1-.46,0l3.45-1.83q1.42,0,2.31,0t1.45-.09q.56-.05.91-.12l.71-.12c.24,0,.52-.07.84-.09s.76,0,1.31,0a12.84,12.84,0,0,1,4.14.62,8.53,8.53,0,0,1,3.12,1.82,7.86,7.86,0,0,1,2,3,11.18,11.18,0,0,1,.68,4.06,9,9,0,0,1-.6,3.31,11,11,0,0,1-1.63,2.84,12.86,12.86,0,0,1-2.39,2.32,16.29,16.29,0,0,1-6,2.82A13.33,13.33,0,0,1,177.26,95.07Zm3.08-2q.92,0,1.55-.06a10.09,10.09,0,0,0,1-.14,3.5,3.5,0,0,0,.75-.21,5,5,0,0,0,1.26-.92,7.32,7.32,0,0,0,1.22-1.59,9.85,9.85,0,0,0,.93-2.22,10,10,0,0,0,.37-2.8,11.42,11.42,0,0,0-.59-3.73,8.64,8.64,0,0,0-1.69-3,7.69,7.69,0,0,0-2.67-1.94,8.56,8.56,0,0,0-3.52-.7,12.59,12.59,0,0,0-1.59.09q-.7.09-1.38.13l-.59,16.64q1.57.23,2.77.32T180.33,93.07Z" transform="translate(-16.26 -15.58)"/><path d="M233.11,82.43a6.06,6.06,0,0,1-.94.75q-.5.32-1,.59,0,1.67-.08,3.73t-.1,4.62a11.21,11.21,0,0,0,1.35.2q.61,0,1.1,0t.7,0l.51-.05.42-.08q-.81.55-1.58,1T232,94a12.11,12.11,0,0,1-1.35.55,5.47,5.47,0,0,1-1.17.27,8.36,8.36,0,0,1-1,0,1.24,1.24,0,0,1-.68-.18,1.05,1.05,0,0,1-.4-.56,3.44,3.44,0,0,1-.13-1.07c0-.21,0-.58,0-1.1s0-1.15,0-1.87l.06-2.4q0-1.31.08-2.68-.87.18-1.65.26t-1.36.11a11.91,11.91,0,0,1-1.27,0l-2.68-.1q-1.19,0-2.13,0h-1.07l-.93,0-.14,7.16a5.11,5.11,0,0,0,.94.21,7.52,7.52,0,0,0,.88.05,6.93,6.93,0,0,0,1-.07,7,7,0,0,0,.81-.16l.55-.17a1,1,0,0,0,.23-.1,10.93,10.93,0,0,1-1.38,1,14.11,14.11,0,0,1-1.48.79,11,11,0,0,1-1.44.55,6.78,6.78,0,0,1-1.22.26,8.9,8.9,0,0,1-1,0,1.79,1.79,0,0,1-.81-.18,1.23,1.23,0,0,1-.53-.56,2.42,2.42,0,0,1-.19-1.07q0-.34,0-1.18t.05-2q0-1.17.08-2.56t.08-2.81q0-1.42.09-2.78t.08-2.46q0-1.11.06-1.86c0-.5,0-.83,0-1a.67.67,0,0,0-.4-.68,2.4,2.4,0,0,0-1-.2,6,6,0,0,0-1,.1q-.54.1-1,.22.7-.46,1.37-.85a11.92,11.92,0,0,1,1.37-.68,8.3,8.3,0,0,1,1.4-.44,6.83,6.83,0,0,1,1.48-.16,4.53,4.53,0,0,1,.57,0,2,2,0,0,1,.46.11.82.82,0,0,1,.31.2.42.42,0,0,1,.12.3q0,.29,0,1.31c0,.29,0,.65,0,1.08s0,.94,0,1.54,0,1.3-.05,2.08,0,1.69-.07,2.71q.81-.08,1.65-.12t1.66,0q.87,0,1.73,0l1.68.1,1.64.1q.81,0,1.62,0h1.11l.26-6.81a.69.69,0,0,0-.09-.41.76.76,0,0,0-.29-.27,1.56,1.56,0,0,0-.45-.15,3.07,3.07,0,0,0-.56,0,6.33,6.33,0,0,0-1.07.1q-.55.1-1.06.22.7-.46,1.37-.85a11.92,11.92,0,0,1,1.37-.68,8.23,8.23,0,0,1,1.41-.44,6.93,6.93,0,0,1,1.48-.16,3.09,3.09,0,0,1,1,.15q.43.15.43.49t0,1.29c0,.28,0,.63,0,1s0,.91,0,1.5,0,1.26,0,2,0,1.65-.05,2.63l1-.19Q232.63,82.58,233.11,82.43Z" transform="translate(-16.26 -15.58)"/><path d="M269.26,84.84c-.18.17-.38.35-.59.53l-.67.54q.34.83.68,1.59t.63,1.39q.29.64.55,1.11a7.45,7.45,0,0,0,.46.77,3.88,3.88,0,0,0,.64.7,4,4,0,0,0,.73.47,2,2,0,0,0,.92.21,2.2,2.2,0,0,0,1.09-.34q-.49.52-1,1a9.43,9.43,0,0,1-1.16.9,6.54,6.54,0,0,1-1.26.64,3.73,3.73,0,0,1-1.33.25,1.63,1.63,0,0,1-1-.31,3.14,3.14,0,0,1-.86-1.09,7.91,7.91,0,0,1-.4-.79q-.25-.54-.57-1.29l-.7-1.65-.79-1.91a13.36,13.36,0,0,1-1.87.41,14.62,14.62,0,0,1-2.17.15h-4l-1.12,2.63a2.4,2.4,0,0,0-.13.53,1,1,0,0,0,0,.49.72.72,0,0,0,.32.36,1.42,1.42,0,0,0,.72.14,4,4,0,0,0,.62-.05q.34-.05.78-.16-.77.73-1.33,1.23a7.72,7.72,0,0,1-1.07.82,3.9,3.9,0,0,1-1,.46,4.48,4.48,0,0,1-1.19.14.73.73,0,0,1-.57-.19.77.77,0,0,1-.17-.53,3.26,3.26,0,0,1,.23-1.07q.23-.63.57-1.39T254.37,89l.86-2,1.2-2.71,1.59-3.6q.9-2,2-4.61l.64-.53a3.49,3.49,0,0,1,.07-.74,2.08,2.08,0,0,1,.2-.55,2.15,2.15,0,0,1,.31-.43,4.74,4.74,0,0,1,.38-.37l.59-.48,1.68-1.39a2.28,2.28,0,0,0-.23.7,5,5,0,0,0-.06.77,6.74,6.74,0,0,0,0,.76q0,.36.1.64a3.63,3.63,0,0,0,.15.6q.15.49.52,1.56t.88,2.45q.51,1.39,1.11,3t1.2,3.08l.7-.11.51-.08Zm-8.15-6.69-1.83,4q-.86,1.85-1.64,3.67,1.83,0,3.36-.12t2.78-.19q-.44-1.07-.84-2.13t-.75-2q-.35-1-.63-1.78T261.11,78.15Z" transform="translate(-16.26 -15.58)"/><path d="M300.61,91.84q-.81.55-1.59,1t-1.5.81a12.15,12.15,0,0,1-1.35.57,5.28,5.28,0,0,1-1.17.27,7.54,7.54,0,0,1-.94,0,1.36,1.36,0,0,1-.68-.19,1,1,0,0,1-.4-.55,3.18,3.18,0,0,1-.14-1q0-.34,0-1.19t0-2q0-1.17,0-2.56t0-2.81q0-1.42,0-2.78t0-2.47q0-1.11,0-1.87c0-.51,0-.83,0-1a.63.63,0,0,0-.1-.41.86.86,0,0,0-.31-.27,1.51,1.51,0,0,0-.47-.14,3.88,3.88,0,0,0-.57,0,6.5,6.5,0,0,0-1,.09q-.55.09-1,.21.68-.44,1.36-.83A12.15,12.15,0,0,1,292.2,74a8.6,8.6,0,0,1,1.39-.45,6.48,6.48,0,0,1,1.46-.16,4.7,4.7,0,0,1,.57,0,2.31,2.31,0,0,1,.49.11.83.83,0,0,1,.33.21.45.45,0,0,1,.12.32q0,.52,0,2.57,0,.87,0,2.17t0,3.14q0,1.84,0,4.27t0,5.57q.71.12,1.31.18t1.07.05q.42,0,.74,0l.53-.05ZM315,92a15.86,15.86,0,0,1-1.84,1.37,11,11,0,0,1-1.37.74,4.5,4.5,0,0,1-1.15.36,3.36,3.36,0,0,1-1.51,0,8.25,8.25,0,0,1-1.74-.65,14.68,14.68,0,0,1-1.85-1.11q-.94-.66-1.86-1.4t-1.77-1.54q-.85-.79-1.57-1.52T299,86.88q-.55-.61-.87-1t-.43-.57a.78.78,0,0,1-.16-.44.84.84,0,0,1,.19-.47,5.48,5.48,0,0,1,.66-.7l.64-.62.88-.88,1-1.06q.54-.57,1.07-1.16t1-1.18q.48-.59.85-1.11a8.52,8.52,0,0,0,.58-1,1.69,1.69,0,0,0,.22-.73q0-.4-.85-.4h-1.16a2.1,2.1,0,0,0-.42,0l1.33-.77a13.06,13.06,0,0,1,1.22-.63,7.61,7.61,0,0,1,1.2-.42,5,5,0,0,1,1.27-.16l.61,0a5,5,0,0,1,.65.09,21.45,21.45,0,0,1-1.28,2q-.65.9-1.3,1.65t-1.29,1.38q-.64.63-1.25,1.2l-1.19,1.1q-.57.53-1.09,1.11a.7.7,0,0,0-.21.59,1.73,1.73,0,0,0,.5.86L303,85.37q.88,1,1.89,1.91T307,89.13a19.54,19.54,0,0,0,2.25,1.6,12.53,12.53,0,0,0,2.33,1.11,7,7,0,0,0,2.36.42A1.75,1.75,0,0,0,315,92Z" transform="translate(-16.26 -15.58)"/><path d="M346.57,84.84c-.18.17-.38.35-.59.53l-.67.54q.34.83.68,1.59t.63,1.39q.29.64.55,1.11a7.45,7.45,0,0,0,.46.77,3.88,3.88,0,0,0,.64.7,4,4,0,0,0,.73.47,2,2,0,0,0,.92.21,2.2,2.2,0,0,0,1.09-.34q-.49.52-1,1a9.43,9.43,0,0,1-1.16.9,6.54,6.54,0,0,1-1.26.64,3.73,3.73,0,0,1-1.33.25,1.63,1.63,0,0,1-1-.31,3.14,3.14,0,0,1-.86-1.09,7.91,7.91,0,0,1-.4-.79q-.25-.54-.57-1.29l-.7-1.65-.79-1.91a13.36,13.36,0,0,1-1.87.41,14.62,14.62,0,0,1-2.17.15h-4l-1.12,2.63a2.4,2.4,0,0,0-.13.53,1,1,0,0,0,0,.49.72.72,0,0,0,.32.36,1.42,1.42,0,0,0,.72.14,4,4,0,0,0,.62-.05q.34-.05.78-.16-.77.73-1.33,1.23a7.72,7.72,0,0,1-1.07.82,3.9,3.9,0,0,1-1,.46,4.48,4.48,0,0,1-1.19.14.73.73,0,0,1-.57-.19.77.77,0,0,1-.17-.53,3.26,3.26,0,0,1,.23-1.07q.23-.63.57-1.39T331.68,89l.86-2,1.2-2.71,1.59-3.6q.9-2,2-4.61l.64-.53a3.49,3.49,0,0,1,.07-.74,2.08,2.08,0,0,1,.2-.55,2.15,2.15,0,0,1,.31-.43,4.74,4.74,0,0,1,.38-.37l.59-.48,1.68-1.39a2.28,2.28,0,0,0-.23.7,5,5,0,0,0-.06.77,6.74,6.74,0,0,0,0,.76q0,.36.1.64a3.63,3.63,0,0,0,.15.6q.15.49.52,1.56t.88,2.45q.51,1.39,1.11,3T345,85.1l.7-.11.51-.08Zm-8.15-6.69-1.83,4q-.86,1.85-1.64,3.67,1.83,0,3.36-.12t2.78-.19q-.44-1.07-.84-2.13t-.75-2q-.35-1-.63-1.78T338.42,78.15Z" transform="translate(-16.26 -15.58)"/><path d="M384.33,91.7a18.55,18.55,0,0,1-3,1.54,17.44,17.44,0,0,1-2.91.89,18.55,18.55,0,0,1-3,.38q-1.52.07-3.16,0l-.94,0a1.53,1.53,0,0,1-.68-.18,1,1,0,0,1-.4-.51,3,3,0,0,1-.14-1q0-.34,0-1.19t0-2q0-1.17,0-2.56t0-2.81q0-1.42,0-2.78t0-2.47q0-1.11,0-1.87c0-.51,0-.83,0-1a.63.63,0,0,0-.1-.41.86.86,0,0,0-.31-.27,1.51,1.51,0,0,0-.47-.14,3.88,3.88,0,0,0-.57,0,6.5,6.5,0,0,0-1,.09q-.55.09-1,.21.7-.45,1.37-.84a11.3,11.3,0,0,1,1.36-.67,9.07,9.07,0,0,1,1.39-.44,6.54,6.54,0,0,1,1.48-.16,4.7,4.7,0,0,1,.57,0,2.18,2.18,0,0,1,.48.11.83.83,0,0,1,.33.21.41.41,0,0,1,.11.32q0,.52,0,2.6,0,.89,0,2.2t0,3.17q0,1.86,0,4.33t0,5.65q1.28.15,2.42.21t2.15.06q1.42,0,2.54-.09t1.9-.2Q383.63,91.87,384.33,91.7Z" transform="translate(-16.26 -15.58)"/></svg>